<svg name="youtube" viewBox="0 0 553 545">
<g>
	<path class="red" d="M21.22,288.5c0-10.65,0-21.29,0-31.94c1.61-11.16,2.8-22.39,4.91-33.45c21-109.76,114.46-194.7,225.53-204.91
		c54.57-5.01,106.47,4.75,153.21,33.57c91.48,56.39,133.88,139.17,125.97,246.36c-3.74,50.7-23.44,95.97-55.7,135.31
		c-40.12,48.93-91.47,79.31-153.84,90.66c-9.44,1.72-19.03,2.66-28.55,3.96c-10.65,0-21.3,0-31.95,0
		c-6.24-0.77-12.49-1.43-18.71-2.32c-47.14-6.7-89.5-24.67-126.3-54.93c-48.85-40.16-79.28-91.41-90.6-153.75
		C23.48,307.6,22.53,298.02,21.22,288.5z M277.41,385.41c0.02-0.38,0.03-0.75,0.05-1.13c3.66,0,7.33,0.15,10.98-0.02
		c35.03-1.62,70.1-2.76,105.09-5.17c20.32-1.4,33.66-13.67,37.05-33.77c2.92-17.31,4.37-34.95,5.31-52.51
		c1.6-30.11,0.65-60.2-4.43-90c-3.75-22.02-16.72-34.44-38.97-36.93c-15.19-1.7-30.46-2.94-45.74-3.57
		c-60.04-2.48-120.06-2.56-179.99,2.55c-28.41,2.42-41.59,14.87-45.52,42.96c-3.86,27.57-5.2,55.34-3.68,83.11
		c1.03,18.71,2.69,37.5,5.8,55.95c2.86,16.97,14.33,27.29,31.15,31.16c5,1.15,10.16,1.95,15.28,2.21
		C205.66,382.08,241.54,383.71,277.41,385.41z"/>
	<path class="white" d="M277.41,385.41c-35.87-1.7-71.75-3.33-107.61-5.15c-5.12-0.26-10.28-1.06-15.28-2.21
		c-16.82-3.87-28.29-14.19-31.15-31.16c-3.11-18.46-4.77-37.24-5.8-55.95c-1.53-27.77-0.18-55.54,3.68-83.11
		c3.93-28.09,17.12-40.53,45.52-42.96c59.93-5.12,119.95-5.03,179.99-2.55c15.27,0.63,30.55,1.87,45.74,3.57
		c22.25,2.49,35.22,14.9,38.97,36.93c5.07,29.8,6.03,59.89,4.43,90c-0.93,17.56-2.39,35.19-5.31,52.51
		c-3.39,20.1-16.73,32.37-37.05,33.77c-34.98,2.41-70.05,3.55-105.09,5.17c-3.65,0.17-7.32,0.02-10.98,0.02
		C277.45,384.66,277.43,385.03,277.41,385.41z M245.14,320.3c27.78-16,54.99-31.67,82.98-47.78
		c-28.12-16.18-55.33-31.84-82.98-47.75C245.14,257.01,245.14,288.21,245.14,320.3z"/>
	<path class="red" d="M245.14,320.3c0-32.08,0-63.29,0-95.53c27.65,15.91,54.86,31.57,82.98,47.75
		C300.14,288.63,272.92,304.3,245.14,320.3z"/>
</g>
</svg>
