<svg name="gmail" viewBox="0 0 553 545">
<g>
	<path class="red" d="M265.4,17.15c7.32,0,14.64,0,21.96,0c2.27,0.38,4.52,0.84,6.8,1.12c9.55,1.16,19.22,1.69,28.64,3.5
		c59.43,11.4,109.01,40.08,148.23,86.16c31.55,37.07,50.83,79.86,57.7,128.13c1.26,8.84,2.11,17.75,3.15,26.62
		c0,6.65,0,13.31,0,19.96c-0.37,2.44-0.78,4.87-1.12,7.31c-1.58,11.66-2.42,23.48-4.83,34.96c-12,57.3-40.35,105.27-85.3,142.63
		c-63.02,52.38-135.57,70.64-215.82,54.78c-62.46-12.34-113.36-44.88-151.61-95.73c-46.28-61.53-61.66-130.82-46.36-206.24
		c12.6-62.1,45.17-112.28,95.34-150.8c37.04-28.44,79.01-45.15,125.5-50.3C253.6,18.6,259.5,17.85,265.4,17.15z M276.33,382.56
		c49.56,0,99.13,0.01,148.69-0.01c10.23,0,14.08-3.88,14.08-14.23c0.01-62.54,0.02-125.07,0-187.61c0-12.45-5.55-17.97-17.98-17.97
		c-96.47-0.01-192.93-0.01-289.4,0c-12.5,0-18.06,5.47-18.06,17.88c-0.02,62.54-0.02,125.07,0,187.61
		c0,10.59,3.79,14.32,14.48,14.32C177.54,382.56,226.94,382.56,276.33,382.56z"/>
	<path class="white" d="M276.33,382.56c-49.4,0-98.8,0-148.19,0c-10.69,0-14.48-3.73-14.48-14.32c-0.01-62.54-0.02-125.07,0-187.61
		c0-12.41,5.56-17.88,18.06-17.88c96.47-0.01,192.93-0.01,289.4,0c12.43,0,17.98,5.52,17.98,17.97c0.02,62.54,0.02,125.07,0,187.61
		c0,10.35-3.85,14.23-14.08,14.23C375.46,382.57,325.9,382.56,276.33,382.56z M151.14,184.27c-0.21,0.4-0.42,0.79-0.63,1.19
		c0.94,0.68,2,1.24,2.81,2.05c34.01,33.97,68.28,67.69,101.78,102.15c7.99,8.22,15.93,12.91,27.21,10.72
		c2.55-0.49,5.49-1.43,7.24-3.18c36.69-36.46,73.24-73.07,109.82-109.65c0.89-0.89,1.71-1.86,3.01-3.3
		C318.17,184.27,234.65,184.27,151.14,184.27z M159.11,360.91c78.14,0,156.63,0,233.56,0c-22.34-22.41-45.25-45.4-68.44-68.66
		c-7.76,7.83-16.14,16.14-24.34,24.63c-3.36,3.47-7.18,5.04-11.99,4.92c-7.15-0.18-14.32-0.35-21.44,0.05
		c-6.19,0.34-10.77-1.87-14.95-6.3c-7.73-8.2-15.82-16.05-23.48-23.76C204.75,315.12,181.91,338.04,159.11,360.91z M210.67,276.82
		c-25.24-25.24-50.64-50.65-75.43-75.45c0,49.59,0,100.32,0,150.78C160.66,326.77,186.03,301.43,210.67,276.82z M417.73,200.47
		c-25.52,25.52-50.95,50.95-75.25,75.25c25.03,25.03,50.42,50.41,75.25,75.23C417.73,301.53,417.73,250.89,417.73,200.47z"/>
	<path class="red" d="M151.14,184.27c83.52,0,167.03,0,251.25,0c-1.31,1.43-2.12,2.4-3.01,3.3
		c-36.57,36.58-73.12,73.19-109.82,109.65c-1.75,1.74-4.69,2.68-7.24,3.18c-11.28,2.19-19.22-2.5-27.21-10.72
		c-33.51-34.48-67.78-68.2-101.79-102.17c-0.81-0.81-1.87-1.38-2.81-2.05C150.71,185.06,150.92,184.66,151.14,184.27z"/>
	<path class="red" d="M159.11,360.91c22.8-22.87,45.65-45.79,68.92-69.14c7.66,7.71,15.75,15.57,23.48,23.76
		c4.18,4.43,8.76,6.64,14.95,6.3c7.13-0.39,14.3-0.22,21.44-0.05c4.81,0.12,8.63-1.44,11.99-4.92c8.2-8.48,16.57-16.8,24.34-24.63
		c23.19,23.26,46.1,46.25,68.44,68.66C315.73,360.91,237.25,360.91,159.11,360.91z"/>
	<path class="red" d="M210.67,276.82c-24.65,24.61-50.02,49.95-75.43,75.33c0-50.46,0-101.19,0-150.78
		C160.03,226.17,185.44,251.58,210.67,276.82z"/>
	<path class="red" d="M417.73,200.47c0,50.42,0,101.07,0,150.49c-24.82-24.82-50.21-50.2-75.25-75.23
		C366.79,251.42,392.21,225.99,417.73,200.47z"/>
</g>
</svg>
