<svg name="instagram" viewBox="0 0 553 545">
<g>
	<path class="red" d="M276.43,526.14C136.32,526.1,22.74,412.25,22.9,272.04C23.06,132.2,136.9,18.7,276.82,18.86
		S530.19,132.72,530.1,272.69C530.01,412.61,416.34,526.18,276.43,526.14z M432.69,272.72c0.15,0,0.3,0,0.45,0
		c0-18.93,0.13-37.87-0.07-56.8c-0.08-7.41-0.35-14.9-1.46-22.22c-4.89-32.44-20.92-56.64-52.38-68.93
		c-13.04-5.09-26.73-7.27-40.66-7.32c-39.72-0.15-79.44-0.16-119.15,0.03c-8.41,0.04-16.93,0.55-25.21,1.93
		c-31.96,5.33-55.65,21.63-67.48,52.78c-4.85,12.76-6.86,26.1-6.87,39.73c-0.03,39.39-0.08,78.77,0.06,118.16
		c0.03,7.24,0.39,14.56,1.49,21.71c4.67,30.12,19.09,53.48,47.66,66.48c14.04,6.39,29.02,9.16,44.32,9.25
		c42.08,0.24,84.17,0.27,126.25-0.01c16.34-0.11,32.28-3.17,47.06-10.57c30.33-15.18,43.69-41.51,45.7-73.76
		C433.87,319.78,432.69,296.21,432.69,272.72z"/>
	<path class="white" d="M432.69,272.72c0,23.49,1.18,47.05-0.29,70.45c-2.01,32.25-15.38,58.58-45.7,73.76
		c-14.78,7.4-30.72,10.46-47.06,10.57c-42.08,0.28-84.17,0.25-126.25,0.01c-15.3-0.09-30.28-2.86-44.32-9.25
		c-28.58-13-42.99-36.37-47.66-66.48c-1.11-7.14-1.47-14.46-1.49-21.71c-0.14-39.38-0.08-78.77-0.06-118.16
		c0.01-13.63,2.02-26.97,6.87-39.73c11.84-31.15,35.52-47.45,67.48-52.78c8.29-1.38,16.8-1.89,25.21-1.93
		c39.72-0.19,79.43-0.19,119.15-0.03c13.93,0.05,27.62,2.23,40.66,7.32c31.46,12.29,47.49,36.49,52.38,68.93
		c1.1,7.32,1.38,14.8,1.46,22.22c0.2,18.93,0.07,37.86,0.07,56.8C433,272.72,432.84,272.72,432.69,272.72z M276.63,146.76
		c0-0.17,0-0.34,0-0.51c-4.06,0-8.12-0.08-12.17,0.01c-20.61,0.45-41.28,0.09-61.81,1.64c-23.7,1.78-41.3,13.67-49.14,36.84
		c-2.92,8.64-4.52,18.13-4.63,27.26c-0.5,39.05-0.25,78.12-0.17,117.17c0.01,5.22,0.35,10.47,0.94,15.66
		c3.4,29.9,23.42,50.13,53.25,52.3c19.52,1.42,39.18,1.52,58.77,1.46c29.57-0.09,59.18,0.06,88.69-1.58
		c23.74-1.32,41.32-13.64,49.13-36.78c3.02-8.95,4.49-18.81,4.61-28.28c0.5-38.88,0.25-77.78,0.16-116.67
		c-0.01-5.56-0.36-11.16-1.05-16.67c-3.17-25.52-19.26-43.66-44.15-49.34c-6.7-1.53-13.7-2.3-20.58-2.41
		C317.88,146.57,297.25,146.76,276.63,146.76z"/>
	<path class="red" d="M276.63,146.76c20.62,0,41.25-0.2,61.87,0.11c6.88,0.1,13.88,0.88,20.58,2.41
		c24.89,5.68,40.98,23.82,44.15,49.34c0.69,5.52,1.03,11.11,1.05,16.67c0.09,38.89,0.34,77.78-0.16,116.67
		c-0.12,9.47-1.59,19.33-4.61,28.28c-7.81,23.14-25.4,35.47-49.13,36.78c-29.5,1.64-59.12,1.49-88.69,1.58
		c-19.59,0.06-39.25-0.03-58.77-1.46c-29.83-2.17-49.85-22.4-53.25-52.3c-0.59-5.19-0.93-10.44-0.94-15.66
		c-0.08-39.06-0.32-78.12,0.17-117.17c0.12-9.13,1.71-18.62,4.63-27.26c7.83-23.17,25.43-35.06,49.14-36.84
		c20.53-1.55,41.2-1.19,61.81-1.64c4.05-0.09,8.11-0.01,12.17-0.01C276.63,146.42,276.63,146.59,276.63,146.76z M276.18,354.94
		c45.24,0.43,82.41-36.22,82.75-81.6c0.35-45.61-35.77-82.7-81.1-83.29c-46.03-0.6-83.25,35.66-83.76,81.6
		C193.57,317.52,230.03,354.51,276.18,354.94z M359.71,206.86c9.03-0.11,16.3-7.55,16.18-16.56c-0.12-9.05-7.46-16.27-16.52-16.25
		c-9.26,0.01-16.69,7.63-16.42,16.84C343.22,200.02,350.52,206.97,359.71,206.86z"/>
	<path class="white" d="M276.18,354.94c-46.15-0.44-82.62-37.43-82.11-83.28c0.51-45.94,37.73-82.2,83.76-81.6
		c45.33,0.59,81.44,37.68,81.1,83.29C358.59,318.72,321.42,355.37,276.18,354.94z M277.22,219.33
		c-29.27-0.57-53.25,22.76-53.89,52.44c-0.63,29.18,22.84,53.3,52.45,53.89c29.28,0.58,53.24-22.74,53.88-52.45
		C330.29,243.96,306.89,219.92,277.22,219.33z"/>
	<path class="white" d="M359.71,206.86c-9.19,0.12-16.49-6.84-16.76-15.97c-0.27-9.21,7.15-16.83,16.42-16.84
		c9.07-0.01,16.4,7.2,16.52,16.25C376.01,199.3,368.74,206.74,359.71,206.86z"/>
	<path class="red" d="M277.22,219.33c29.67,0.58,53.07,24.63,52.44,53.88c-0.64,29.7-24.6,53.03-53.88,52.45
		c-29.61-0.59-53.09-24.7-52.45-53.89C223.97,242.1,247.95,218.76,277.22,219.33z"/>
</g>
</svg>
