<svg name="whatsapp" viewBox="0 0 553 545">
<g>
	<path class="red" d="M292.75,528.05c-10.65,0-21.3,0-31.95,0c-6.24-0.77-12.49-1.43-18.71-2.32c-47.14-6.7-89.5-24.67-126.3-54.93
		c-48.85-40.16-79.28-91.41-90.6-153.75c-1.72-9.45-2.67-19.03-3.97-28.55c0-10.65,0-21.29,0-31.94
		c1.62-11.16,2.81-22.39,4.91-33.45C47.01,113.47,140.6,28.41,251.66,18.2c54.57-5.02,106.47,4.75,153.21,33.56
		c91.48,56.39,133.88,139.17,125.97,246.36c-3.74,50.7-23.44,95.97-55.7,135.31c-40.12,48.93-91.47,79.31-153.84,90.66
		C311.85,525.81,302.27,526.75,292.75,528.05z M128.04,423.72c2.24-0.51,3.67-0.79,5.09-1.16c23.78-6.19,47.53-12.5,71.36-18.46
		c2.73-0.68,6.31-0.3,8.84,0.93c28.11,13.73,57.64,19.03,88.64,14.97c85.23-11.17,144.66-90.66,131.38-175.44
		c-13.17-84.06-92.8-141.2-176.85-126.88c-102.79,17.5-158.32,130.81-109.12,222.83c1.62,3.02,1.96,5.59,1.04,8.89
		C141.58,373.85,134.96,398.36,128.04,423.72z"/>
	<path class="white" d="M128.04,423.72c6.92-25.36,13.54-49.87,20.37-74.33c0.92-3.31,0.58-5.87-1.04-8.89
		c-49.19-92.02,6.33-205.32,109.12-222.83c84.05-14.31,163.69,42.82,176.85,126.88c13.28,84.78-46.15,164.27-131.38,175.44
		c-31,4.06-60.53-1.24-88.64-14.97c-2.53-1.23-6.11-1.62-8.84-0.93c-23.83,5.97-47.58,12.27-71.36,18.46
		C131.71,422.93,130.28,423.22,128.04,423.72z M164.68,387.6c15.46-4.01,29.88-7.88,44.38-11.39c2.24-0.54,5.29-0.08,7.29,1.09
		c26.42,15.31,54.73,21.32,84.9,16.72c69.83-10.66,117.12-75.53,106.45-145.47c-13.25-86.83-110.65-134.31-187.21-91.25
		c-63.71,35.84-84.54,115.82-46.2,178.09c2.42,3.93,2.9,7.26,1.64,11.58C172.06,360.15,168.57,373.44,164.68,387.6z"/>
	<path class="red" d="M164.68,387.6c3.89-14.16,7.38-27.45,11.25-40.63c1.27-4.32,0.78-7.65-1.64-11.58
		c-38.33-62.28-17.51-142.26,46.2-178.09c76.55-43.06,173.96,4.42,187.21,91.25c10.67,69.94-36.63,134.81-106.45,145.47
		c-30.17,4.61-58.48-1.41-84.9-16.72c-2-1.16-5.05-1.63-7.29-1.09C194.56,379.71,180.14,383.58,164.68,387.6z M322.19,341.8
		c2.47-0.16,4.84-0.03,7.1-0.49c17.74-3.62,30.94-13.79,30.27-32.86c-0.07-2.02-1.67-4.92-3.39-5.81c-9.86-5.12-19.97-9.77-30-14.56
		c-4.04-1.93-7.09-1.16-9.8,2.72c-3.22,4.62-7.08,8.79-10.6,13.21c-2.32,2.92-5,3.3-8.39,1.95c-22.44-8.94-39.53-24.02-51.95-44.63
		c-1.96-3.25-1.58-5.73,0.75-8.53c3.08-3.7,6.2-7.45,8.57-11.6c1.23-2.15,1.86-5.57,1.04-7.78c-3.75-10.1-8-20.03-12.33-29.9
		c-0.87-1.98-2.57-4.08-4.45-5.05c-5.15-2.69-16.45-0.59-20.62,3.48c-11.91,11.6-16.09,25.63-12.76,41.85
		c2.85,13.89,10.65,25.27,19,36.31c16.14,21.34,34.9,39.72,59.69,50.81C296.41,336.33,308.63,341.75,322.19,341.8z"/>
	<path class="white" d="M322.19,341.8c-13.56-0.05-25.78-5.46-37.87-10.87c-24.79-11.08-43.55-29.46-59.69-50.81
		c-8.35-11.04-16.15-22.42-19-36.31c-3.33-16.22,0.86-30.25,12.76-41.85c4.18-4.07,15.48-6.17,20.62-3.48
		c1.87,0.98,3.58,3.07,4.45,5.05c4.33,9.87,8.59,19.8,12.33,29.9c0.82,2.21,0.18,5.64-1.04,7.78c-2.37,4.15-5.5,7.9-8.57,11.6
		c-2.33,2.8-2.71,5.28-0.75,8.53c12.42,20.61,29.52,35.69,51.95,44.63c3.39,1.35,6.07,0.96,8.39-1.95
		c3.51-4.42,7.38-8.59,10.6-13.21c2.71-3.89,5.76-4.65,9.8-2.72c10.03,4.79,20.14,9.44,30,14.56c1.72,0.89,3.32,3.79,3.39,5.81
		c0.67,19.07-12.54,29.24-30.27,32.86C327.03,341.77,324.66,341.64,322.19,341.8z"/>
</g>
</svg>
